HIERARCHY
ROOT Hips
{
	OFFSET -0.001795 -0.223333 0.028219
	CHANNELS 6 Xposition Yposition Zposition Zrotation Yrotation Xrotation 
	JOINT LeftUpLeg
	{
		OFFSET 0.069520 -0.091406 -0.006815
		CHANNELS 3 Zrotation Yrotation Xrotation
		JOINT LeftLeg
		{
			OFFSET 0.034277 -0.375199 -0.004496
			CHANNELS 3 Zrotation Yrotation Xrotation
			JOINT LeftFoot
			{
				OFFSET -0.013596 -0.397961 -0.043693
				CHANNELS 3 Zrotation Yrotation Xrotation
				JOINT LeftToe
				{
					OFFSET 0.026358 -0.055791 0.119288
					CHANNELS 3 Zrotation Yrotation Xrotation
					End Site
					{
						OFFSET 0.000000 0.000000 0.000000
					}
				}
			}
		}
	}
	JOINT RightUpLeg
	{
		OFFSET -0.067670 -0.090522 -0.004320
		CHANNELS 3 Zrotation Yrotation Xrotation
		JOINT RightLeg
		{
			OFFSET -0.038290 -0.382569 -0.008850
			CHANNELS 3 Zrotation Yrotation Xrotation
			JOINT RightFoot
			{
				OFFSET 0.015774 -0.398415 -0.042312
				CHANNELS 3 Zrotation Yrotation Xrotation
				JOINT RightToe
				{
					OFFSET -0.025372 -0.048144 0.123348
					CHANNELS 3 Zrotation Yrotation Xrotation
					End Site
					{
						OFFSET 0.000000 0.000000 0.000000
					}
				}
			}
		}
	}
	JOINT Spine
	{
		OFFSET -0.002533 0.108963 -0.026696
		CHANNELS 3 Zrotation Yrotation Xrotation
		JOINT Spine1
		{
			OFFSET 0.005487 0.135180 0.001092
			CHANNELS 3 Zrotation Yrotation Xrotation
			JOINT Spine2
			{
				OFFSET 0.001457 0.052922 0.025425
				CHANNELS 3 Zrotation Yrotation Xrotation
				JOINT Neck
				{
					OFFSET -0.002778 0.213870 -0.042857
					CHANNELS 3 Zrotation Yrotation Xrotation
					JOINT Head
					{
						OFFSET 0.005152 0.064970 0.051349
						CHANNELS 3 Zrotation Yrotation Xrotation
						End Site
						{
							OFFSET 0.000000 0.000000 0.000000
						}
					}
				}
				JOINT LeftShoulder
				{
					OFFSET 0.078845 0.121749 -0.034090
					CHANNELS 3 Zrotation Yrotation Xrotation
					JOINT LeftArm
					{
						OFFSET 0.090977 0.030469 -0.008868
						CHANNELS 3 Zrotation Yrotation Xrotation
						JOINT LeftForeArm
						{
							OFFSET 0.259612 -0.012772 -0.027456
							CHANNELS 3 Zrotation Yrotation Xrotation
							JOINT LeftHand
							{
								OFFSET 0.249234 0.008986 -0.001171
								CHANNELS 3 Zrotation Yrotation Xrotation
								End Site
								{
									OFFSET 0.000000 0.000000 0.000000
								}
							}
						}
					}
				}
				JOINT RightShoulder
				{
					OFFSET -0.081759 0.118833 -0.038615
					CHANNELS 3 Zrotation Yrotation Xrotation
					JOINT RightArm
					{
						OFFSET -0.096012 0.032551 -0.009143
						CHANNELS 3 Zrotation Yrotation Xrotation
						JOINT RightForeArm
						{
							OFFSET -0.253742 -0.013329 -0.021401
							CHANNELS 3 Zrotation Yrotation Xrotation
							JOINT RightHand
							{
								OFFSET -0.255298 0.007772 -0.005559
								CHANNELS 3 Zrotation Yrotation Xrotation
								End Site
								{
									OFFSET 0.000000 0.000000 0.000000
								}
							}
						}
					}
				}
			}
		}
	}
}
MOTION
Frames: 7
Frame Time: 0.050000
-0.064224 0.861624 0.020964 -6.221912 -22.424381 11.825900 10.208354 4.384553 -41.024370 -3.138461 6.200901 52.533099 5.881848 11.461677 -5.540892 0.000000 0.000000 0.000000 -14.044728 3.804000 -40.846324 21.871707 -3.949745 35.128013 -18.407903 -39.382216 12.859730 0.000000 0.000000 0.000000 7.056539 0.027215 53.612244 -11.010073 2.067440 -37.806656 -1.447008 4.325561 28.288191 14.840478 -2.975540 -48.673680 0.000000 0.000000 0.000000 -33.606046 -16.587484 11.833392 -23.730954 -14.485824 -2.251467 1.011060 -54.231045 1.719662 0.000000 0.000000 0.000000 37.404648 3.941449 -2.201975 33.378263 12.188596 -1.522909 8.242170 69.156108 8.327874 0.000000 0.000000 0.000000 
-0.071109 0.865821 0.024522 -5.824968 -20.746895 11.234447 10.454401 3.909062 -39.977154 -3.035300 5.670201 52.209461 4.573337 8.426428 -6.155741 0.000000 0.000000 0.000000 -13.345967 3.648399 -40.720198 21.545342 -4.198009 36.223085 -18.345859 -39.118159 12.726595 0.000000 0.000000 0.000000 6.708230 -0.345461 52.579238 -10.997816 2.091715 -38.012441 -1.055996 3.728946 28.951719 12.979025 -2.599562 -47.693445 0.000000 0.000000 0.000000 -34.677159 -16.421324 11.965869 -24.077088 -13.834498 -2.414513 1.679574 -52.060570 1.307431 0.000000 0.000000 0.000000 37.178710 4.006890 -2.162530 33.741747 12.745147 -1.435832 9.322119 70.418164 9.310287 0.000000 0.000000 0.000000 
-0.079288 0.870015 0.029458 -5.674888 -20.250436 10.938651 10.816889 3.675026 -38.230152 -3.370421 5.533564 50.203148 4.608400 8.589062 -6.001872 0.000000 0.000000 0.000000 -12.036535 4.028316 -41.606854 21.798539 -4.373609 36.331449 -16.701030 -36.846440 11.591070 0.000000 0.000000 0.000000 6.184652 -0.284675 51.656758 -10.516524 2.029188 -37.109119 -1.138347 3.834737 27.766992 12.472836 -2.790142 -45.534974 0.000000 0.000000 0.000000 -34.785487 -15.734255 11.382169 -25.208836 -13.035444 -2.554182 -0.932005 -51.827820 2.649629 0.000000 0.000000 0.000000 38.830245 4.403262 -2.016813 32.662596 12.051642 -1.484698 12.495260 72.226543 11.927489 0.000000 0.000000 0.000000 
-0.088609 0.871890 0.035280 -4.671767 -19.231487 10.435450 10.492270 3.168636 -37.270984 -3.084657 5.090074 49.915916 3.560967 6.063826 -6.509297 0.000000 0.000000 0.000000 -11.796362 3.835699 -41.192777 21.686191 -4.404724 34.815530 -15.569684 -35.053562 11.150463 0.000000 0.000000 0.000000 6.387871 -0.677430 51.025845 -10.491387 2.026292 -37.789865 -1.695101 3.089192 29.062778 11.031189 -2.474399 -45.193434 0.000000 0.000000 0.000000 -34.984967 -15.634144 11.622763 -25.808097 -12.844528 -2.764376 0.409265 -51.261393 2.014551 0.000000 0.000000 0.000000 38.321472 5.185399 -1.506553 33.564930 13.038001 -1.341083 11.577515 73.051796 11.451725 0.000000 0.000000 0.000000 
-0.098509 0.870698 0.041735 -3.672680 -18.195333 9.403483 10.348413 2.800186 -36.437028 -3.746088 5.417202 50.710245 3.639719 6.170743 -6.703425 0.000000 0.000000 0.000000 -10.909371 3.611072 -39.289299 20.922448 -4.190247 34.035611 -16.815285 -36.589756 11.881217 0.000000 0.000000 0.000000 7.378490 -1.384659 51.564876 -11.221990 2.113213 -38.204123 -2.237904 2.701306 29.074906 12.383231 -3.149746 -44.442065 0.000000 0.000000 0.000000 -34.536213 -15.710472 11.545234 -27.509517 -12.872478 -2.874881 -1.565445 -51.041071 3.042062 0.000000 0.000000 0.000000 38.028660 4.843891 -1.645283 33.787966 13.006175 -1.387994 11.980142 73.636378 11.882436 0.000000 0.000000 0.000000 
-0.108062 0.869295 0.047996 -2.425555 -16.221256 8.504904 10.881677 2.772795 -37.517089 -4.708315 5.704246 52.463022 1.848867 3.069576 -2.524118 0.000000 0.000000 0.000000 -11.954439 2.936317 -38.667783 21.973614 -4.970663 34.549717 -18.743160 -38.610329 14.180333 0.000000 0.000000 0.000000 7.749823 -2.078989 51.018826 -9.885446 2.011340 -36.243326 -3.538735 3.638743 27.880437 13.053078 -3.198201 -43.809719 0.000000 0.000000 0.000000 -32.889071 -15.586535 10.383338 -29.774307 -12.206132 -2.894707 -3.184520 -52.093979 4.003547 0.000000 0.000000 0.000000 37.983860 4.191024 -1.242179 32.690301 13.688805 -1.365069 9.903435 73.668761 10.585759 0.000000 0.000000 0.000000 
-0.116425 0.867825 0.053713 -1.859373 -15.777240 8.392231 12.607978 3.723239 -39.968853 -6.104465 7.064272 56.465560 0.754131 2.590576 3.268252 0.000000 0.000000 0.000000 -11.933808 2.830341 -38.365984 21.594637 -4.946510 34.933918 -19.163375 -39.164732 14.149463 0.000000 0.000000 0.000000 8.031325 -2.328775 50.488566 -9.198074 1.933948 -35.862338 -3.479886 5.479077 27.492421 12.348612 -2.455341 -44.910144 0.000000 0.000000 0.000000 -34.260713 -15.171920 9.314204 -28.999362 -10.549011 -2.953406 -5.403750 -55.331417 5.300113 0.000000 0.000000 0.000000 38.478356 4.331410 -0.102652 30.442002 14.379547 -1.440937 4.102663 73.374904 6.448593 0.000000 0.000000 0.000000 
